<?xml version="1.0" standalone="no"?><!DOCTYPE svg PUBLIC "-//W3C//DTD SVG 1.1//EN" "http://www.w3.org/Graphics/SVG/1.1/DTD/svg11.dtd"><svg t="1648537386502" class="icon" viewBox="0 0 1024 1024" version="1.1" xmlns="http://www.w3.org/2000/svg" p-id="4276" xmlns:xlink="http://www.w3.org/1999/xlink" width="200" height="200"><defs><style type="text/css"></style></defs><path d="M77 403.4v228.5c1.5 93.7 195.7 183.5 435 183.5s433.4-89.8 435-183.5V403.4H77z" fill="#1B9BDB" p-id="4277"></path><path d="M947 402.7c0 99.4-194.8 194-435 194s-435-94.6-435-194 194.8-180 435-180 435 80.5 435 180z" fill="#3ED6FF" p-id="4278"></path><path d="M474.1 311.4H503l0.1 63.2h29.5l-0.7-63.2h28.9l-43.7-75.1zM533 417.2h-29.9l0.1 73.9h-30.6l46.2 75.2 45.5-75.2h-30.6zM654.5 380.9l-1.4-30-72.1 45 76.4 45.1-1.4-30h126.2l-2.6-30.1zM381.1 380.9h-125l-2.3 30.1H380l-1.1 30 75.9-45.1-72.5-45z" fill="#FFFFFF" p-id="4279"></path></svg>